<?xml version="1.0" standalone="no"?>
<!DOCTYPE svg PUBLIC "-//W3C//DTD SVG 20010904//EN"
 "http://www.w3.org/TR/2001/REC-SVG-20010904/DTD/svg10.dtd">
<svg version="1.0" xmlns="http://www.w3.org/2000/svg"
 width="30.000000pt" height="30.000000pt" viewBox="0 0 48.000000 48.000000"
 preserveAspectRatio="xMidYMid meet">

<g transform="translate(0.000000,48.000000) scale(0.100000,-0.100000)"
fill="#000000" stroke="none">
<path d="M204 378 c-15 -29 -27 -54 -29 -56 -1 -1 -28 -7 -61 -13 -32 -6 -63
-15 -69 -20 -6 -6 8 -27 38 -57 l47 -48 -11 -58 c-14 -79 -5 -86 66 -48 l57
31 55 -31 c69 -39 78 -31 64 48 l-11 58 47 48 c55 56 52 64 -32 78 -32 5 -59
11 -60 12 -1 2 -14 27 -29 56 -14 28 -31 52 -36 52 -5 0 -22 -24 -36 -52z"/>
</g>
</svg>
